<svg id="Capa_1" enable-background="new 0 0 512 512" height="512" viewBox="0 0 512 512" width="512"
     xmlns="http://www.w3.org/2000/svg">
    <g>
        <path d="m512 91h-29v-60h-301.582l-13.626-31h-167.792v469h248.878c20.906 26.188 53.085 43 89.122 43s68.216-16.812 89.122-43h84.878zm-59-30v30h-245.208l-13.187-30zm-115 421c-46.317 0-84-37.683-84-84s37.683-84 84-84 84 37.683 84 84-37.683 84-84 84zm144-43h-37.631c4.924-12.73 7.631-26.554 7.631-41 0-62.859-51.141-114-114-114s-114 51.141-114 114c0 14.446 2.707 28.27 7.631 41h-201.631v-409h118.208l40 91h293.792z"/>
        <path d="m353 358.25h-30v24.75h-24.75v30h24.75v24.75h30v-24.75h24.75v-30h-24.75z"/>
    </g>
</svg>
